<?xml version="1.0" encoding="iso-8859-1"?>
<!-- Generator: Adobe Illustrator 19.0.0, SVG Export Plug-In . SVG Version: 6.00 Build 0)  -->
<svg version="1.1" fill="#3C6E71" id="Capa_1" xmlns="http://www.w3.org/2000/svg" xmlns:xlink="http://www.w3.org/1999/xlink" x="0px" y="0px"
	 viewBox="0 0 512 512" style="enable-background:new 0 0 512 512;" xml:space="preserve">
<g>
	<g>
		<path d="M0,40.922v75.514h512V40.922H0z M46.741,93.679c-8.284,0-15-6.716-15-15s6.716-15,15-15s15,6.716,15,15
			S55.025,93.679,46.741,93.679z M95.468,93.679c-8.284,0-15-6.716-15-15s6.716-15,15-15s15,6.716,15,15
			S103.752,93.679,95.468,93.679z M144.194,93.679c-8.284,0-15-6.716-15-15s6.716-15,15-15s15,6.716,15,15
			S152.478,93.679,144.194,93.679z"/>
	</g>
</g>
<g>
	<g>
		<path d="M0,146.436v324.642h512V146.436H0z M211.37,346.675l-21.213,21.213l-59.13-59.13l59.13-59.131l21.213,21.213
			l-37.917,37.918L211.37,346.675z M253.923,384.609l-29.234-6.732l33.388-144.972l29.234,6.733L253.923,384.609z M321.843,367.888
			l-21.213-21.213l37.917-37.918L300.63,270.84l21.213-21.213l59.13,59.13L321.843,367.888z"/>
	</g>
</g>
<g>
</g>
<g>
</g>
<g>
</g>
<g>
</g>
<g>
</g>
<g>
</g>
<g>
</g>
<g>
</g>
<g>
</g>
<g>
</g>
<g>
</g>
<g>
</g>
<g>
</g>
<g>
</g>
<g>
</g>
</svg>
