<?xml version="1.0" encoding="iso-8859-1"?>
<!-- Generator: Adobe Illustrator 19.0.0, SVG Export Plug-In . SVG Version: 6.00 Build 0)  -->
<svg xmlns="http://www.w3.org/2000/svg" fill="#FCAF58" xmlns:xlink="http://www.w3.org/1999/xlink" version="1.1" id="Layer_1" x="0px" y="0px" viewBox="0 0 501 501" style="enable-background:new 0 0 501 501;" xml:space="preserve" width="512" height="512">
<g>
	<path d="M383.555,282.571c-16.972-1.53-29.708-15.819-29.191-32.852c1.459-48.043-30.291-94.18-81.815-104.897   c-73.685-15.328-132.376,45.915-126.312,111.34c1.616,17.441-11.566,32.662-29.022,34.119c-0.227,0.019-0.454,0.038-0.681,0.059   c-52.419,4.75-94.208,48.874-94.803,102.575c-0.644,58.079,46.243,105.362,104.174,105.362c47.895,0,88.238-32.322,100.414-76.342   c3.135-11.332,13.284-19.288,25.042-19.288c11.138,0,20.932,7.152,24.56,17.683c14.079,40.87,52.869,70.234,98.521,70.234   c55.229,0,100.421-42.976,103.958-97.311C482.167,335.345,437.801,287.461,383.555,282.571z"/>
	<path d="M154.1,123.783c22.698,4.002,44.343-11.154,48.345-33.851c4.002-22.698-4.338-82.995-27.036-86.997   c-22.698-4.002-51.158,49.806-55.16,72.503C116.247,98.136,131.402,119.781,154.1,123.783z"/>
	<path d="M346.9,123.783c22.698-4.002,37.854-25.647,33.851-48.345c-4.002-22.697-32.462-76.506-55.16-72.503   c-22.698,4.002-31.038,64.299-27.036,86.997C302.557,112.63,324.202,127.785,346.9,123.783z"/>
	<path d="M83.464,201.389c0-23.048-18.684-80.981-41.732-80.981C18.684,120.408,0,178.34,0,201.389   c0,23.048,18.684,41.732,41.732,41.732C64.78,243.121,83.464,224.436,83.464,201.389z"/>
	<path d="M459.268,120.408c-23.048,0-41.732,57.933-41.732,80.981c0,23.048,18.684,41.732,41.732,41.732   c23.048,0,41.732-18.685,41.732-41.732C501,178.34,482.316,120.408,459.268,120.408z"/>
</g>















</svg>
